:FULLY-SPECIFIED
:FORCE-ALL-JOINTS-BE-3DOF
:DEGREES
2446
root 2.47565 15.1993 -23.7252 944.322 81.8505 -132.099
lfemur -32.0765 20.1918 -12.9051
ltibia 70.4568 0 0
lfoot -24.5929 17.5477 0
ltoes -32.3432 0 0
rfemur -46.0721 -22.2954 10.9039
rtibia 52.1991 0 0
rfoot 15.7183 -0.663355 0
rtoes 10.3332 0 0
lowerback 18.2461 0.80224 -3.08751
upperback 0.11478 0.941217 4.05904
thorax -10.281 0.775769 5.98484
lowerneck 3.83196 -13.0949 -14.8118
upperneck 1.15554 -18.261 13.4513
head 2.32821 -9.22523 5.798
lclavicle 5.79444e-15 -2.44734e-14 0
lhumerus -15.2609 -66.5268 102.459
lradius 96.4239 0 0
lwrist 52.4701 0 0
lhand -3.97267 404.143 0
lfingers 7.12502 0 0
lthumb 20.264 -644.865 0
rclavicle -1.56787e-14 8.04585e-15 0
rhumerus 24.1354 26.2344 -61.9392
rradius 111.145 0 0
rwrist 17.2689 0 0
rhand -22.3209 -403.482 0
rfingers 7.12502 0 0
rthumb 3.6852 286.131 0
2447
root 2.55258 15.1746 -23.726 941.721 81.8461 -134.524
lfemur -31.4752 20.4352 -12.7761
ltibia 70.4963 0 0
lfoot -25.1721 17.5622 0
ltoes -32.7692 0 0
rfemur -46.0839 -22.3204 10.8916
rtibia 49.85 0 0
rfoot 17.8049 -0.000750894 0
rtoes 10.3818 0 0
lowerback 18.1739 0.671658 -3.41623
upperback 0.0188028 0.68686 3.99
thorax -10.3177 0.670219 6.16918
lowerneck 3.7539 -13.1023 -14.8188
upperneck 1.66533 -18.2891 13.26
head 2.47749 -9.23511 5.71705
lclavicle 6.34382e-15 -2.39191e-14 0
lhumerus -16.0611 -65.986 102.729
lradius 97.548 0 0
lwrist 54.8781 0 0
lhand -3.47296 404.254 0
lfingers 7.12502 0 0
lthumb 20.3737 -644.838 0
rclavicle -1.22175e-14 8.5175e-15 0
rhumerus 23.6906 25.3544 -62.1399
rradius 111.299 0 0
rwrist 21.2117 0 0
rhand -23.8103 -403.736 0
rfingers 7.12502 0 0
rthumb 2.40081 285.896 0
2448
root 2.62795 15.1577 -23.7255 940.616 81.6626 -135.406
lfemur -30.9299 20.6559 -12.6591
ltibia 70.6112 0 0
lfoot -25.7317 17.5762 0
ltoes -33.213 0 0
rfemur -46.118 -22.393 10.8559
rtibia 47.8118 0 0
rfoot 19.7379 0.613073 0
rtoes 10.4597 0 0
lowerback 18.1072 0.542451 -3.41659
upperback -0.0650043 0.516758 4.00332
thorax -10.3509 0.591805 6.23109
lowerneck 3.74396 -13.1214 -14.9944
upperneck 2.13706 -18.3463 13.125
head 2.62968 -9.26348 5.67862
lclavicle 6.98414e-15 -2.32731e-14 0
lhumerus -17.0512 -65.3167 103.063
lradius 98.6883 0 0
lwrist 57.3337 0 0
lhand -3.15808 404.324 0
lfingers 7.12502 0 0
lthumb 20.4275 -644.853 0
rclavicle -9.20332e-15 8.92823e-15 0
rhumerus 23.0953 24.1766 -62.4085
rradius 111.449 0 0
rwrist 24.9114 0 0
rhand -25.3503 -403.998 0
rfingers 7.12502 0 0
rthumb 1.0845 285.655 0
2449
root 2.70131 15.1312 -23.7268 937.995 81.7618 -137.957
lfemur -30.4479 20.851 -12.5557
ltibia 70.7962 0 0
lfoot -26.2621 17.5894 0
ltoes -33.6697 0 0
rfemur -46.1726 -22.5092 10.7987
rtibia 46.1363 0 0
rfoot 21.4788 1.16592 0
rtoes 10.5646 0 0
lowerback 17.9557 0.449838 -3.74183
upperback -0.177033 0.309646 3.89609
thorax -10.3636 0.506548 6.3557
lowerneck 3.61736 -13.1423 -15.0827
upperneck 2.65235 -18.3883 12.9537
head 2.8003 -9.28005 5.6093
lclavicle 7.70402e-15 -2.25467e-14 0
lhumerus -18.214 -64.5308 103.455
lradius 99.8342 0 0
lwrist 59.8051 0 0
lhand -3.04855 404.348 0
lfingers 7.12502 0 0
lthumb 20.5838 -644.896 0
rclavicle -6.71746e-15 9.26696e-15 0
rhumerus 22.3653 22.7324 -62.7379
rradius 111.595 0 0
rwrist 28.3276 0 0
rhand -26.9207 -404.265 0
rfingers 7.12502 0 0
rthumb -0.250973 285.411 0
2450
root 2.77555 15.106 -23.7244 936.408 81.6851 -139.359
lfemur -30.0369 21.0174 -12.4675
ltibia 71.0459 0 0
lfoot -26.7535 17.6016 0
ltoes -34.1341 0 0
rfemur -46.2461 -22.6654 10.7219
rtibia 44.8753 0 0
rfoot 22.9894 1.6456 0
rtoes 10.6939 0 0
lowerback 17.8862 0.382994 -3.75167
upperback -0.239118 0.211761 3.84071
thorax -10.3794 0.45922 6.32541
lowerneck 3.46457 -13.2494 -15.2656
upperneck 3.1468 -18.5445 12.7924
head 2.9948 -9.35394 5.5428
lclavicle 8.49211e-15 -2.17516e-14 0
lhumerus -19.5322 -63.6398 103.9
lradius 100.975 0 0
lwrist 62.2607 0 0
lhand -2.9838 404.349 0
lfingers 7.12502 0 0
lthumb 20.8346 -644.965 0
rclavicle -4.84121e-15 9.52263e-15 0
rhumerus 21.5166 21.0532 -63.1209
rradius 111.735 0 0
rwrist 31.4197 0 0
rhand -28.5011 -404.535 0
rfingers 7.12502 0 0
rthumb -1.59283 285.165 0
2451
root 2.84812 15.0778 -23.7237 936.422 81.6004 -139.319
lfemur -29.7042 21.1521 -12.3961
ltibia 71.3548 0 0
lfoot -27.196 17.6127 0
ltoes -34.601 0 0
rfemur -46.3365 -22.8577 10.6273
rtibia 44.0808 0 0
rfoot 24.2311 2.03991 0
rtoes 10.8453 0 0
lowerback 17.6992 0.271475 -3.60824
upperback -0.339907 0.0977675 3.85666
thorax -10.3695 0.398635 6.28788
lowerneck 3.33215 -13.2605 -15.3614
upperneck 3.4677 -18.556 12.6002
head 3.10337 -9.3573 5.47734
lclavicle 9.33702e-15 -2.08991e-14 0
lhumerus -20.9885 -62.6554 104.391
lradius 102.099 0 0
lwrist 64.6687 0 0
lhand -2.79697 404.353 0
lfingers 7.12502 0 0
lthumb 21.1721 -645.058 0
rclavicle -3.65585e-15 9.68415e-15 0
rhumerus 20.5649 19.1704 -63.5504
rradius 111.866 0 0
rwrist 34.1472 0 0
rhand -30.0715 -404.802 0
rfingers 7.12502 0 0
rthumb -2.9283 284.921 0
2452
root 2.92071 15.0439 -23.7203 934.281 81.7245 -141.462
lfemur -29.4574 21.252 -12.3431
ltibia 71.7175 0 0
lfoot -27.58 17.6223 0
ltoes -35.0654 0 0
rfemur -46.442 -23.0822 10.5169
rtibia 43.8044 0 0
rfoot 25.1656 2.33666 0
rtoes 11.0163 0 0
lowerback 17.5355 0.245878 -3.81333
upperback -0.44366 0.0111462 3.77982
thorax -10.3809 0.366037 6.34277
lowerneck 3.25483 -13.3374 -15.5251
upperneck 3.68457 -18.6592 12.4377
head 3.19404 -9.4093 5.42763
lclavicle 1.02274e-14 -2.00008e-14 0
lhumerus -22.5657 -61.5892 104.923
lradius 103.195 0 0
lwrist 66.9977 0 0
lhand -2.49914 404.36 0
lfingers 7.12502 0 0
lthumb 21.5884 -645.173 0
rclavicle -3.24267e-15 9.74045e-15 0
rhumerus 19.526 17.1151 -64.0192
rradius 111.988 0 0
rwrist 36.4696 0 0
rhand -31.6115 -405.064 0
rfingers 7.12502 0 0
rthumb -4.24461 284.68 0
